<svg width="900" height="600" viewBox="0 0 900 600" fill="none" xmlns="http://www.w3.org/2000/svg">
  <rect width="900" height="600" rx="42" fill="#030712"/>
  <circle cx="450" cy="300" r="240" fill="#8b5cf6" opacity="0.14"/>
  <rect x="80" y="80" width="740" height="440" rx="32" fill="#111827" stroke="#ffffff" stroke-opacity="0.08"/>
  <rect x="125" y="130" width="230" height="340" rx="26" fill="#020617"/>
  <rect x="160" y="170" width="130" height="18" rx="9" fill="#f8fafc" opacity="0.86"/>
  <rect x="160" y="225" width="150" height="46" rx="16" fill="#8b5cf6"/>
  <rect x="160" y="295" width="150" height="46" rx="16" fill="#1f2937"/>
  <rect x="160" y="365" width="150" height="46" rx="16" fill="#1f2937"/>
  <rect x="400" y="130" width="355" height="76" rx="24" fill="#020617"/>
  <rect x="430" y="160" width="180" height="17" rx="9" fill="#e2e8f0" opacity="0.85"/>
  <rect x="400" y="235" width="355" height="78" rx="24" fill="#020617"/>
  <circle cx="438" cy="274" r="15" fill="#22c55e"/>
  <rect x="470" y="258" width="210" height="14" rx="7" fill="#cbd5e1" opacity="0.75"/>
  <rect x="470" y="284" width="150" height="10" rx="5" fill="#64748b" opacity="0.65"/>
  <rect x="400" y="338" width="355" height="78" rx="24" fill="#020617"/>
  <circle cx="438" cy="377" r="15" fill="#22d3ee"/>
  <rect x="470" y="361" width="220" height="14" rx="7" fill="#cbd5e1" opacity="0.75"/>
  <rect x="470" y="387" width="130" height="10" rx="5" fill="#64748b" opacity="0.65"/>
</svg>
